<?xml version="1.0" standalone="no"?>
<!DOCTYPE svg PUBLIC "-//W3C//DTD SVG 20010904//EN"
 "http://www.w3.org/TR/2001/REC-SVG-20010904/DTD/svg10.dtd">
<svg version="1.0" xmlns="http://www.w3.org/2000/svg"
 width="615.000000pt" height="878.000000pt" viewBox="0 0 615.000000 878.000000"
 preserveAspectRatio="xMidYMid meet">

<g transform="translate(0.000000,878.000000) scale(0.100000,-0.100000)"
fill="#000000" stroke="none">
<path d="M3080 4398 c-1686 -2408 -3066 -4382 -3068 -4388 -6 -16 6127 -14
6133 2 3 7 4 1982 3 4388 l-3 4375 -3065 -4377z m-773 -2269 c54 -20 93 -70
108 -136 l7 -33 -51 0 c-38 0 -51 4 -51 14 0 8 -11 27 -24 42 -51 60 -146 20
-146 -62 0 -46 24 -68 108 -94 122 -39 172 -99 172 -207 -1 -136 -97 -225
-228 -210 -81 9 -158 85 -177 175 l-7 32 49 0 c46 0 50 -2 61 -34 19 -52 47
-71 104 -71 67 0 98 33 98 105 0 41 -4 52 -30 73 -16 14 -54 32 -83 41 -74 22
-118 54 -145 106 -46 90 -7 210 81 251 47 21 111 24 154 8z m668 -23 c66 -30
133 -95 166 -161 21 -43 24 -64 24 -155 0 -89 -3 -112 -23 -151 -34 -70 -84
-122 -154 -160 -59 -32 -69 -34 -158 -34 -84 0 -101 3 -148 28 -67 35 -124 92
-159 159 -25 48 -28 63 -28 153 0 81 4 109 22 147 25 54 90 129 141 160 87 54
218 60 317 14z m375 -276 l0 -290 115 0 115 0 0 -45 0 -45 -165 0 -165 0 0
335 0 335 50 0 50 0 0 -290z m400 -45 l0 -335 -50 0 -50 0 0 335 0 335 50 0
50 0 0 -335z m491 303 c69 -32 127 -87 159 -153 34 -70 36 -227 4 -296 -32
-69 -91 -128 -159 -161 -58 -27 -65 -28 -222 -28 l-163 0 0 336 0 336 163 -4
c150 -3 166 -5 218 -30z m669 -303 l0 -335 -50 0 -50 0 -2 250 -3 249 -170
-249 -169 -250 -58 0 c-32 0 -58 3 -58 6 0 3 104 154 231 335 l230 329 50 0
49 0 0 -335z m448 307 c77 -41 110 -96 111 -187 1 -92 -46 -161 -133 -194
l-47 -17 34 -45 c18 -24 59 -79 91 -121 l57 -78 -65 0 -65 0 -103 144 -103
144 -3 -144 -3 -144 -49 0 -50 0 0 336 0 336 143 -4 c123 -3 148 -7 185 -26z
m-1396 -964 l3 -233 158 233 159 232 54 0 54 0 0 -340 0 -340 -50 0 -50 0 -2
251 -3 251 -173 -251 c-169 -246 -174 -251 -207 -251 l-35 0 -2 254 -3 255
-180 -254 -180 -255 -53 0 -53 0 228 340 228 339 52 1 53 0 2 -232z m858 187
l0 -45 -115 0 -115 0 0 -100 0 -100 115 0 115 0 0 -50 0 -50 -115 0 -115 0 0
-95 0 -95 115 0 115 0 0 -50 0 -50 -165 0 -165 0 0 340 0 340 165 0 165 0 0
-45z m472 7 c73 -36 114 -79 151 -159 32 -69 32 -217 0 -286 -35 -76 -77 -121
-145 -158 l-63 -34 -162 -3 -163 -4 0 342 0 342 158 -4 c155 -3 159 -4 224
-36z"/>
<path d="M2785 2031 c-224 -56 -260 -360 -56 -463 90 -46 179 -34 256 34 71
62 102 174 73 259 -39 116 -168 196 -273 170z"/>
<path d="M3960 1781 l0 -241 81 0 c113 0 163 15 214 64 73 70 92 182 49 286
-37 88 -102 122 -241 128 l-103 4 0 -241z"/>
<path d="M5130 1894 l0 -127 70 6 c117 10 170 50 170 129 0 81 -55 118 -177
118 l-63 0 0 -126z"/>
<path d="M5010 1014 l0 -247 89 6 c97 6 151 24 195 65 89 84 92 266 6 352 -48
48 -114 70 -212 70 l-78 0 0 -246z"/>
</g>
</svg>
